{"title":"Beast (2011) - Christoffer Boe","uid":8283135,"size":1571343721,"categoryP":"video","categoryS":"movies","magnet":"?xt=urn:btih:d675f581f5aac0b96f19df48036956fe132ac7a7&amp;dn=Beast+%282011%29+-+Christoffer+Boe&amp;tr=udp%3A%2F%2Ftracker.openbittorrent.com%3A80&amp;tr=udp%3A%2F%2Fopen.demonii.com%3A1337&amp;tr=udp%3A%2F%2Ftracker.coppersurfer.tk%3A6969&amp;tr=udp%3A%2F%2Fexodus.desync.com%3A6969","seeders":0,"leechers":1,"uploader":"Aaaameida","files":-1,"time":1363885851,"description":"Bruno loves his wife Maxine, but his love and body are slowly undergoing a transformation. Something is beginning to stir inside him and there is nothing he can do to stop it. Because when you first delve into the dark side of love to find power, aggression and hatred, there is no turning back.\n\nLanguage: Danish\n\nSubtitles: English and Portuguese\n &lt;a href=&quot;\nhttp://www.imdb.com/title/tt1572501&quot; rel=&quot;nofollow&quot; target=&quot;_NEW&quot;&gt;\nhttp://www.imdb.com/title/tt1572501&lt;/a&gt;\n\n\n      Format : AVI\n      Format/Info : Audio Video Interleave\n      File size : 1.46 GiB\n      Duration : 1h 22mn\n      Overall bit rate : 2 542 Kbps\n      Writing application : VirtualDubMod 1.5.10.3 | www.virtualdub-fr.org || (build 2550/release)\n      Writing library : VirtualDubMod build 2550/release\n   Video #0\n      ID : 0\n      Format : MPEG-4 Visual\n      Format profile : AdvancedSimple@L5\n      Format settings, BVOP : Yes\n      Format settings, QPel : No\n      Format settings, GMC : No warppoints\n      Format settings, Matrix : Default (MPEG)\n      Codec ID : XVID\n      Codec ID/Hint : XviD\n      Duration : 1h 22mn\n      Bit rate : 2 084 Kbps\n      Width : 720 pixels\n      Height : 304 pixels\n      Display aspect ratio : 2.35:1\n      Frame rate : 25.000 fps\n      Resolution : 24 bits\n      Colorimetry : 4:2:0\n      Scan type : Progressive\n      Bits/(Pixel*Frame) : 0.381\n      Stream size : 1.20 GiB (82%)\n      Writing library : XviD 1.2.1 (UTC 2008-12-04)\n   Audio #1\n      ID : 1\n      Format : AC-3\n      Format/Info : Audio Coding 3\n      Codec ID : 2000\n      Duration : 1h 22mn\n      Bit rate mode : Constant\n      Bit rate : 448 Kbps\n      Channel(s) : 6 channels\n      Channel positions : Front: L C R, Surround: L R, LFE\n      Sampling rate : 48.0 KHz\n      Stream size : 264 MiB (18%)\n      Alignment : Split accross interleaves\n      Interleave, duration : 40 ms (1.00 video frame)\n      Interleave, preload duration : 500 ms","torrent":{"xt":"urn:btih:d675f581f5aac0b96f19df48036956fe132ac7a7","amp;dn":"Beast+%282011%29+-+Christoffer+Boe","amp;tr":["udp%3A%2F%2Ftracker.openbittorrent.com%3A80","udp%3A%2F%2Fopen.demonii.com%3A1337","udp%3A%2F%2Ftracker.coppersurfer.tk%3A6969","udp%3A%2F%2Fexodus.desync.com%3A6969"],"infoHash":"d675f581f5aac0b96f19df48036956fe132ac7a7","infoHashBuffer":{"type":"Buffer","data":[214,117,245,129,245,170,192,185,111,25,223,72,3,105,86,254,19,42,199,167]},"announce":[],"urlList":[]}}